<mxfile host="65bd71144e">
    <diagram id="SJPYk1Z3uqYKFkBqb4kG" name="Page-1">
        <mxGraphModel dx="-141" dy="1934" grid="1" gridSize="10" guides="1" tooltips="1" connect="1" arrows="1" fold="1" page="1" pageScale="1" pageWidth="850" pageHeight="1100" math="0" shadow="0">
            <root>
                <mxCell id="0"/>
                <mxCell id="1" parent="0"/>
                <mxCell id="7" value="" style="edgeStyle=none;html=1;" parent="1" source="2" target="3" edge="1">
                    <mxGeometry relative="1" as="geometry"/>
                </mxCell>
                <mxCell id="13" style="edgeStyle=none;html=1;exitX=0;exitY=0.5;exitDx=0;exitDy=0;entryX=0.5;entryY=0;entryDx=0;entryDy=0;" parent="1" source="2" target="10" edge="1">
                    <mxGeometry relative="1" as="geometry"/>
                </mxCell>
                <mxCell id="14" style="edgeStyle=none;html=1;exitX=1;exitY=0.5;exitDx=0;exitDy=0;entryX=0.5;entryY=0;entryDx=0;entryDy=0;" parent="1" source="2" target="9" edge="1">
                    <mxGeometry relative="1" as="geometry"/>
                </mxCell>
                <mxCell id="2" value="App&lt;br&gt;&lt;br&gt;useState: tasks, categories&lt;br&gt;&lt;br&gt;" style="whiteSpace=wrap;html=1;" parent="1" vertex="1">
                    <mxGeometry x="1120" y="-50" width="220" height="120" as="geometry"/>
                </mxCell>
                <mxCell id="16" value="" style="edgeStyle=none;html=1;entryX=0.5;entryY=0;entryDx=0;entryDy=0;" edge="1" parent="1" source="3" target="4">
                    <mxGeometry relative="1" as="geometry">
                        <mxPoint x="1230" y="450" as="targetPoint"/>
                    </mxGeometry>
                </mxCell>
                <mxCell id="3" value="Task List&lt;br&gt;" style="whiteSpace=wrap;html=1;" parent="1" vertex="1">
                    <mxGeometry x="1170" y="310" width="120" height="60" as="geometry"/>
                </mxCell>
                <mxCell id="4" value="Task&amp;nbsp;" style="whiteSpace=wrap;html=1;" parent="1" vertex="1">
                    <mxGeometry x="1170" y="490" width="120" height="60" as="geometry"/>
                </mxCell>
                <mxCell id="9" value="Task Form&lt;br&gt;&lt;br&gt;useState:&amp;nbsp; text, category&amp;nbsp;" style="whiteSpace=wrap;html=1;" parent="1" vertex="1">
                    <mxGeometry x="1400" y="220" width="120" height="80" as="geometry"/>
                </mxCell>
                <mxCell id="10" value="Category Filter" style="whiteSpace=wrap;html=1;" parent="1" vertex="1">
                    <mxGeometry x="940" y="240" width="120" height="60" as="geometry"/>
                </mxCell>
                <mxCell id="18" value="pass down &lt;br&gt;props: categories&amp;nbsp;" style="text;html=1;align=center;verticalAlign=middle;resizable=0;points=[];autosize=1;strokeColor=none;fillColor=none;" vertex="1" parent="1">
                    <mxGeometry x="1290" y="200" width="120" height="40" as="geometry"/>
                </mxCell>
                <mxCell id="20" value="pass down&amp;nbsp;&lt;br&gt;props: &lt;br&gt;tasks, categories" style="text;html=1;align=center;verticalAlign=middle;resizable=0;points=[];autosize=1;strokeColor=none;fillColor=none;" vertex="1" parent="1">
                    <mxGeometry x="1230" y="250" width="110" height="60" as="geometry"/>
                </mxCell>
                <mxCell id="22" value="pass down &lt;br&gt;props: categories" style="text;html=1;align=center;verticalAlign=middle;resizable=0;points=[];autosize=1;strokeColor=none;fillColor=none;" vertex="1" parent="1">
                    <mxGeometry x="1040" y="200" width="120" height="40" as="geometry"/>
                </mxCell>
                <mxCell id="23" value="&lt;b&gt;&lt;br&gt;&amp;nbsp;categories: [&quot; &quot;]&lt;br&gt;&lt;br&gt;tasks: [&amp;nbsp;&lt;br&gt;&lt;br&gt;text: [&quot; &quot;]&lt;br&gt;category: [&quot; &quot;]&lt;br&gt;&lt;br&gt;]&lt;/b&gt;" style="text;html=1;align=center;verticalAlign=middle;resizable=0;points=[];autosize=1;strokeColor=#FFFDFC;fillColor=none;" vertex="1" parent="1">
                    <mxGeometry x="1370" y="-140" width="120" height="140" as="geometry"/>
                </mxCell>
                <mxCell id="24" value=".map over categories&lt;br&gt;" style="text;html=1;align=center;verticalAlign=middle;resizable=0;points=[];autosize=1;strokeColor=none;fillColor=none;" vertex="1" parent="1">
                    <mxGeometry x="1390" y="300" width="140" height="30" as="geometry"/>
                </mxCell>
                <mxCell id="25" value=".map over tasks" style="text;html=1;align=center;verticalAlign=middle;resizable=0;points=[];autosize=1;strokeColor=none;fillColor=none;" vertex="1" parent="1">
                    <mxGeometry x="1235" y="365" width="110" height="30" as="geometry"/>
                </mxCell>
                <mxCell id="26" value="pass down &lt;br&gt;props: tasks&amp;nbsp;" style="text;html=1;align=center;verticalAlign=middle;resizable=0;points=[];autosize=1;strokeColor=none;fillColor=none;" vertex="1" parent="1">
                    <mxGeometry x="1240" y="440" width="90" height="40" as="geometry"/>
                </mxCell>
                <mxCell id="27" value=".map over categories" style="text;html=1;align=center;verticalAlign=middle;resizable=0;points=[];autosize=1;strokeColor=none;fillColor=none;" vertex="1" parent="1">
                    <mxGeometry x="930" y="300" width="140" height="30" as="geometry"/>
                </mxCell>
                <mxCell id="32" value="&lt;div style=&quot;color: rgb(59, 59, 59); background-color: rgb(255, 255, 255); font-family: Menlo, Monaco, &amp;quot;Courier New&amp;quot;, monospace; line-height: 18px;&quot;&gt;&lt;br&gt;&lt;/div&gt;" style="text;html=1;align=center;verticalAlign=middle;resizable=0;points=[];autosize=1;strokeColor=none;fillColor=none;" vertex="1" parent="1">
                    <mxGeometry x="1030" y="-75" width="20" height="30" as="geometry"/>
                </mxCell>
                <mxCell id="36" value=".filter over categories&amp;nbsp;" style="text;html=1;align=center;verticalAlign=middle;resizable=0;points=[];autosize=1;strokeColor=none;fillColor=none;" vertex="1" parent="1">
                    <mxGeometry x="1220" y="70" width="140" height="30" as="geometry"/>
                </mxCell>
            </root>
        </mxGraphModel>
    </diagram>
</mxfile>